<svg data-v-423bf9ae="" xmlns="http://www.w3.org/2000/svg" viewBox="0 0 176.3329824803291 60" class="font"><!----><!----><!----><g data-v-423bf9ae="" id="580ba1d7-384b-46d5-bf8f-0421bc9abea4" fill="white" transform="matrix(6.32244483109513,0,0,6.32244483109513,-4.425710859263901,-14.541623048459712)"><path d="M0.70 6.80L0.70 7L3.64 10.16L3.99 9.86C3.18 8.97 2.37 8.02 1.64 7.01L1.64 6.82C2.35 5.78 3.16 4.83 3.99 3.95L3.64 3.64ZM5.25 2.51L5.25 3.05C5.84 3.05 7.45 2.86 8.29 2.86L8.29 11.37L8.99 11.37L8.99 2.86C9.83 2.86 11.42 3.05 12.01 3.05L12.01 2.51ZM16.37 2.30L11.73 11.58L12.14 11.79L16.79 2.51ZM18.72 11.02L18.72 6.65L21.17 6.65C22.40 6.65 23.28 7.60 23.28 8.96C23.28 10.19 22.44 11.02 21.17 11.02ZM18.72 6.30L18.72 2.86L20.75 2.86C21.74 2.86 22.40 3.51 22.40 4.49C22.40 5.54 21.67 6.30 20.48 6.30ZM18.02 11.37L21.11 11.37C22.82 11.37 23.97 10.42 23.97 8.99C23.97 7.45 22.75 6.54 21.80 6.36L21.80 6.33C22.50 5.95 23.03 5.25 23.03 4.40C23.03 3.26 22.06 2.51 20.62 2.51L18.02 2.51ZM28.59 6.80L25.65 3.64L25.30 3.95C26.12 4.83 26.94 5.78 27.65 6.82L27.65 7.01C26.92 8.02 26.11 8.97 25.30 9.86L25.65 10.16L28.59 7Z"></path></g><!----><!----></svg>